<?xml version="1.0" encoding="utf-8"?>
<!-- Generator: Adobe Illustrator 21.1.0, SVG Export Plug-In . SVG Version: 6.00 Build 0)  -->
<svg version="1.1" id="Layer_1" xmlns="http://www.w3.org/2000/svg" xmlns:xlink="http://www.w3.org/1999/xlink" x="0px" y="0px"
	 viewBox="0 0 136.5 76.2" style="enable-background:new 0 0 136.5 76.2;" xml:space="preserve">
<style type="text/css">
	.st0{fill:#F95F2D;}
	.st1{fill:#FC7F2F;}
	.st2{fill:#262626;}
	.st3{clip-path:url(#SVGID_2_);fill:#FFD55B;}
	.st4{clip-path:url(#SVGID_2_);fill:#262626;}
</style>
<path id="Path_1401" class="st0" d="M132.4,76.2H5.5c-2,0-3.6-1.6-3.6-3.6l6-18.1c0-2,1.6-3.6,3.6-3.6h115.9c2,0,3.6,1.6,3.6,3.6
	l5.5,17C136.7,73.6,134.6,76.2,132.4,76.2z"/>
<path id="Path_1402" class="st1" d="M131.4,74.7H3.6c-2,0-3.6-1.6-3.6-3.6L6,53c0-2,1.6-3.6,3.6-3.6h115.9c2,0,3.6,1.6,3.6,3.6
	l5.9,18.1C135,73.1,133.4,74.7,131.4,74.7z"/>
<path id="Path_1403" class="st0" d="M98.5,49.4v10l10-10H98.5z"/>
<rect id="Rectangle_1861" x="31.9" y="60" class="st2" width="73.6" height="2"/>
<rect id="Rectangle_1862" x="31.9" y="62" class="st0" width="73.6" height="0.8"/>
<g>
	<defs>
		<rect id="SVGID_1_" x="32.9" y="0" width="71.4" height="62"/>
	</defs>
	<clipPath id="SVGID_2_">
		<use xlink:href="#SVGID_1_"  style="overflow:visible;"/>
	</clipPath>
	<path id="Path_1404" class="st3" d="M94.8,90.5h-53c-2,0-3.6-1.6-3.6-3.6V9.4c0-2,1.6-3.6,3.6-3.6h1l5,3.7l4.9-3.7l5.2,3.7l5-3.7
		l5,3.7l5-3.7l5,3.7l5-3.7l5,3.7l5-3.7h1.8c2,0,3.6,1.6,3.6,3.6v77.5C98.4,88.8,96.8,90.4,94.8,90.5z"/>
	<rect x="49.2" y="22.5" class="st4" width="22.7" height="2"/>
	<rect x="49.2" y="31.7" class="st4" width="34.4" height="2"/>
	<rect x="49.2" y="40.9" class="st4" width="22.7" height="2"/>
	<rect x="49.2" y="50.1" class="st4" width="31" height="2"/>
</g>
</svg>
