<?xml version="1.0" encoding="utf-8"?>
<!-- Generator: Adobe Illustrator 21.1.0, SVG Export Plug-In . SVG Version: 6.00 Build 0)  -->
<svg version="1.1" id="Layer_1" xmlns="http://www.w3.org/2000/svg" xmlns:xlink="http://www.w3.org/1999/xlink" x="0px" y="0px"
	 viewBox="0 0 166 100.6" style="enable-background:new 0 0 166 100.6;" xml:space="preserve">
<style type="text/css">
	.st0{fill:#F95F2D;}
	.st1{fill:#FC7F2F;}
	.st2{fill:#FFFFFF;}
</style>
<path id="Path_1371" class="st0" d="M116,100.6H54.2c-2.3,0-4.2-1.9-4.2-4.2V6.3c0-2.3,1.9-4.2,4.2-4.2H116c2.3,0,4.2,1.9,4.2,4.2
	v90.1c0,2.3-1.8,4.2-4.1,4.2C116.1,100.6,116,100.6,116,100.6z"/>
<path id="Path_1372" class="st1" d="M114.3,98.5H52.5c-2.3,0-4.2-1.9-4.2-4.2V4.2c0-2.3,1.9-4.2,4.2-4.2h61.8c2.3,0,4.2,1.9,4.2,4.2
	v90.1c0,2.3-1.8,4.2-4.1,4.2C114.4,98.5,114.4,98.5,114.3,98.5z"/>
<rect x="60.1" y="53.2" class="st2" width="4.2" height="10.7"/>
<rect x="60.1" y="68.7" class="st2" width="4.2" height="4.4"/>
<rect x="60.1" y="77.6" class="st2" width="4.2" height="7.1"/>
<rect x="69.4" y="77.6" class="st2" width="4.2" height="6.9"/>
<rect x="69.4" y="71.6" class="st2" width="4.2" height="2.8"/>
<rect x="69.4" y="63.9" class="st2" width="4.2" height="4.6"/>
<path id="Path_1373" class="st2" d="M87.6,29.8h-8.4c-1.2,0-2.1-0.9-2.1-2.1v-13c0-1.2,0.9-2.1,2.1-2.1h8.4c1.2,0,2.1,0.9,2.1,2.1
	v13C89.7,28.8,88.8,29.8,87.6,29.8z"/>
<path class="st2" d="M21.8,36.2L12.6,27c0,0,0,0,0,0c-0.1-0.1-0.2-0.2-0.3-0.2c0,0,0,0,0,0c0,0-0.1-0.1-0.2-0.1
	c-0.1,0-0.1-0.1-0.2-0.1c0,0,0,0,0,0c-0.1,0-0.1,0-0.2-0.1c-0.1,0-0.1,0-0.2,0c0,0,0,0,0,0c-0.1,0-0.2,0-0.2,0c0,0-0.1,0-0.1,0
	c-0.1,0-0.2,0-0.2,0c0,0-0.1,0-0.1,0c0,0,0,0,0,0c-0.1,0-0.1,0-0.2,0c0,0,0,0,0,0c0,0-0.1,0-0.1,0c0,0,0,0,0,0
	c-0.1,0-0.1,0.1-0.2,0.1c0,0-0.1,0-0.1,0.1c0,0,0,0,0,0c-0.1,0-0.1,0.1-0.2,0.2c0,0-0.1,0-0.1,0.1c0,0,0,0,0,0s0,0,0,0l-9.2,9.2
	c-0.8,0.8-0.8,2,0,2.8C1,39.4,1.5,39.6,2,39.6s1-0.2,1.4-0.6l5.8-5.8v36.9c0,1.1,0.9,2,2,2s2-0.9,2-2V33.3l5.7,5.8
	c0.4,0.4,0.9,0.6,1.4,0.6c0.5,0,1-0.2,1.4-0.6C22.5,38.3,22.5,37,21.8,36.2z"/>
<path class="st2" d="M165.4,36.2l-9.1-9.2c0,0,0,0,0,0c-0.1-0.1-0.2-0.2-0.3-0.3c0,0,0,0,0,0c0,0-0.1-0.1-0.1-0.1
	c-0.1,0-0.1-0.1-0.2-0.1c0,0,0,0,0,0c-0.1,0-0.1,0-0.2-0.1c-0.1,0-0.1,0-0.2-0.1c0,0,0,0,0,0c-0.1,0-0.2,0-0.2,0c0,0-0.1,0-0.1,0
	c-0.1,0-0.2,0-0.2,0c0,0-0.1,0-0.1,0c0,0,0,0,0,0c-0.1,0-0.1,0-0.2,0.1c0,0,0,0,0,0c-0.1,0-0.1,0-0.2,0c0,0,0,0,0,0
	c-0.1,0-0.1,0.1-0.2,0.1c-0.1,0-0.1,0-0.2,0.1c0,0,0,0,0,0c-0.1,0-0.1,0.1-0.2,0.2c0,0-0.1,0-0.1,0.1c0,0,0,0,0,0c0,0,0,0,0,0
	l-9.2,9.2c-0.8,0.8-0.8,2,0,2.8c0.4,0.4,0.9,0.6,1.4,0.6s1-0.2,1.4-0.6l5.8-5.8v36.9c0,1.1,0.9,2,2,2s2-0.9,2-2V33.3l5.7,5.8
	c0.4,0.4,0.9,0.6,1.4,0.6c0.5,0,1-0.2,1.4-0.6C166.2,38.3,166.2,37,165.4,36.2z"/>
</svg>
